<svg width="35" height="36" viewBox="0 0 35 36" fill="none" xmlns="http://www.w3.org/2000/svg">
<g id="&#240;&#159;&#166;&#134; icon &#34;instagram&#34;">
<path id="Vector" d="M30.9474 14.8842H27.9263C28.1719 15.7684 28.2947 16.6526 28.2947 17.5368C28.2947 19.0105 28.0123 20.4105 27.4474 21.7368C26.8825 23.0632 26.1088 24.2175 25.1263 25.2C24.1439 26.1825 22.9895 26.9561 21.6632 27.5211C20.3368 28.086 18.9368 28.3684 17.4632 28.3684C15.9895 28.3684 14.6018 28.086 13.3 27.5211C11.9982 26.9561 10.8561 26.1825 9.87368 25.2C8.89123 24.2175 8.11754 23.0632 7.55263 21.7368C6.98772 20.4105 6.70526 19.0105 6.70526 17.5368C6.70526 16.6526 6.82807 15.7684 7.07368 14.8842H3.97895V29.6947C3.97895 30.0877 4.11403 30.407 4.38421 30.6526C4.65439 30.8982 4.98596 31.0211 5.37895 31.0211H29.6211C30.014 31.0211 30.3333 30.8982 30.5789 30.6526C30.8246 30.407 30.9474 30.0877 30.9474 29.6947V14.8842ZM30.9474 5.45263C30.9474 5.05965 30.8246 4.72807 30.5789 4.45789C30.3333 4.18772 30.014 4.05263 29.6211 4.05263H25.5684C25.1754 4.05263 24.8561 4.18772 24.6105 4.45789C24.3649 4.72807 24.2421 5.05965 24.2421 5.45263V9.43158C24.2421 9.82456 24.3649 10.1561 24.6105 10.4263C24.8561 10.6965 25.1754 10.8316 25.5684 10.8316H29.6211C30.014 10.8316 30.3333 10.6965 30.5789 10.4263C30.8246 10.1561 30.9474 9.82456 30.9474 9.43158V5.45263ZM17.4632 10.8316C15.5965 10.8316 14.0123 11.4825 12.7105 12.7842C11.4088 14.086 10.7579 15.6702 10.7579 17.5368C10.7579 18.4702 10.9298 19.3544 11.2737 20.1895C11.6175 21.0246 12.0965 21.7491 12.7105 22.3632C13.3246 22.9772 14.0368 23.4561 14.8474 23.8C15.6579 24.1439 16.5298 24.3158 17.4632 24.3158C18.3965 24.3158 19.2807 24.1439 20.1158 23.8C20.9509 23.4561 21.6754 22.9772 22.2895 22.3632C22.9035 21.7491 23.3825 21.0246 23.7263 20.1895C24.0702 19.3544 24.2421 18.4702 24.2421 17.5368C24.2421 16.6035 24.0702 15.7316 23.7263 14.9211C23.3825 14.1105 22.9035 13.3982 22.2895 12.7842C21.6754 12.1702 20.9509 11.6912 20.1158 11.3474C19.2807 11.0035 18.3965 10.8316 17.4632 10.8316ZM3.97895 35.0737C2.84912 35.0737 1.90351 34.6807 1.14211 33.8947C0.380702 33.1088 0 32.1509 0 31.0211V4.05263C0 2.92281 0.380702 1.96491 1.14211 1.17895C1.90351 0.392982 2.84912 0 3.97895 0H30.9474C32.0772 0 33.0351 0.392982 33.8211 1.17895C34.607 1.96491 35 2.92281 35 4.05263V31.0211C35 32.1509 34.607 33.1088 33.8211 33.8947C33.0351 34.6807 32.0772 35.0737 30.9474 35.0737H3.97895Z" fill="#B5DFD4"/>
</g>
</svg>
