<svg width="40" height="40" viewBox="0 0 40 40" fill="none" xmlns="http://www.w3.org/2000/svg">
<g id="&#240;&#159;&#166;&#134; icon &#34;rounded imessage&#34;">
<path id="Vector" d="M30.0119 0C31.3819 0 32.6722 0.262843 33.8829 0.78853C35.0936 1.31422 36.1529 2.03106 37.0609 2.93907C37.9689 3.84707 38.6858 4.90641 39.2115 6.11708C39.7372 7.32776 40 8.61808 40 9.98805V29.9642C40 31.3341 39.7372 32.6324 39.2115 33.859C38.6858 35.0856 37.9689 36.1529 37.0609 37.0609C36.1529 37.9689 35.0936 38.6858 33.8829 39.2115C32.6722 39.7372 31.3819 40 30.0119 40H9.98805C8.61808 40 7.32776 39.7372 6.11708 39.2115C4.90641 38.6858 3.84707 37.9689 2.93907 37.0609C2.03106 36.1529 1.31422 35.0856 0.78853 33.859C0.262843 32.6324 0 31.3341 0 29.9642V9.98805C0 8.61808 0.262843 7.32776 0.78853 6.11708C1.31422 4.90641 2.03106 3.84707 2.93907 2.93907C3.84707 2.03106 4.90641 1.31422 6.11708 0.78853C7.32776 0.262843 8.61808 0 9.98805 0H30.0119ZM20.0239 29.4863C21.5532 29.4863 23.0028 29.2314 24.3728 28.7216C25.7427 28.2119 26.9375 27.5189 27.957 26.6428C28.9765 25.7666 29.781 24.7312 30.3704 23.5364C30.9598 22.3417 31.2545 21.0753 31.2545 19.7372C31.2545 18.399 30.9598 17.1326 30.3704 15.9379C29.781 14.7431 28.9765 13.7077 27.957 12.8315C26.9375 11.9554 25.7427 11.2624 24.3728 10.7527C23.0028 10.2429 21.5532 9.98805 20.0239 9.98805C18.4628 9.98805 16.9972 10.2429 15.6272 10.7527C14.2573 11.2624 13.0625 11.9554 12.043 12.8315C11.0235 13.7077 10.219 14.7431 9.62963 15.9379C9.04022 17.1326 8.74552 18.399 8.74552 19.7372C8.74552 21.362 9.16766 22.8594 10.0119 24.2294C10.8562 25.5994 11.9793 26.7463 13.3811 27.6703C13.2855 28.2437 12.9988 28.7296 12.5209 29.1278C12.043 29.5261 11.4695 29.7571 10.8005 29.8208C11.3102 29.9164 11.8519 29.9642 12.4253 29.9642C13.9546 29.9642 15.2131 29.6137 16.2007 28.9128C17.3795 29.2951 18.6539 29.4863 20.0239 29.4863Z" fill="#FFC700"/>
</g>
</svg>
