<svg width="35" height="35" viewBox="0 0 35 35" fill="none" xmlns="http://www.w3.org/2000/svg">
<g id="&#240;&#159;&#166;&#134; icon &#34;rounded github&#34;">
<path id="Vector" d="M16.9773 22.2043C17.7021 22.2043 18.3224 22.3785 18.8381 22.727C19.3538 23.0755 19.6117 23.4867 19.6117 23.9606C19.6117 24.4624 19.3538 24.8875 18.8381 25.236C18.3224 25.5844 17.7021 25.7587 16.9773 25.7587C16.2246 25.7587 15.5904 25.5844 15.0747 25.236C14.5589 24.8875 14.3011 24.4624 14.3011 23.9606C14.3011 23.4867 14.5589 23.0755 15.0747 22.727C15.5904 22.3785 16.2246 22.2043 16.9773 22.2043ZM16.6428 14.7611C16.0016 14.7611 15.451 14.538 14.991 14.092C14.5311 13.646 14.3011 13.1024 14.3011 12.4612C14.3011 11.82 14.5311 11.2764 14.991 10.8303C15.451 10.3843 16.0016 10.1613 16.6428 10.1613C17.284 10.1613 17.8276 10.3843 18.2736 10.8303C18.7196 11.2764 18.9427 11.82 18.9427 12.4612C18.9427 13.1024 18.7196 13.646 18.2736 14.092C17.8276 14.538 17.284 14.7611 16.6428 14.7611ZM26.2605 0C27.4592 0 28.5882 0.229988 29.6476 0.689964C30.7069 1.14994 31.6338 1.77718 32.4283 2.57168C33.2228 3.36619 33.8501 4.29311 34.31 5.35245C34.77 6.41179 35 7.54082 35 8.73955V26.2186C35 27.4174 34.77 28.5534 34.31 29.6266C33.8501 30.6999 33.2228 31.6338 32.4283 32.4283C31.6338 33.2228 30.7069 33.8501 29.6476 34.31C28.5882 34.77 27.4592 35 26.2605 35H8.73955C7.54082 35 6.41179 34.77 5.35245 34.31C4.29311 33.8501 3.36619 33.2228 2.57168 32.4283C1.77718 31.6338 1.14994 30.6999 0.689964 29.6266C0.229988 28.5534 0 27.4174 0 26.2186V8.73955C0 7.54082 0.229988 6.41179 0.689964 5.35245C1.14994 4.29311 1.77718 3.36619 2.57168 2.57168C3.36619 1.77718 4.29311 1.14994 5.35245 0.689964C6.41179 0.229988 7.54082 0 8.73955 0H26.2605ZM16.9355 28.6022C17.7718 28.6022 18.5524 28.4767 19.2772 28.2258C20.002 27.9749 20.6362 27.6404 21.1798 27.2222C21.7234 26.8041 22.1555 26.3162 22.4761 25.7587C22.7967 25.2011 22.957 24.6018 22.957 23.9606C22.957 23.3473 22.8037 22.7618 22.497 22.2043C22.1904 21.6468 21.7652 21.1589 21.2216 20.7407C20.678 20.3226 20.0438 19.9881 19.319 19.7372C18.5942 19.4863 17.8136 19.3608 16.9773 19.3608C16.8937 19.3608 16.81 19.3678 16.7264 19.3817C16.6428 19.3957 16.5591 19.4026 16.4755 19.4026C16.4198 19.2632 16.3779 19.1029 16.3501 18.9217C16.3222 18.7405 16.3082 18.5663 16.3082 18.399C16.3082 18.2039 16.3222 17.9879 16.3501 17.7509C16.3779 17.5139 16.4198 17.3955 16.4755 17.3955H16.6428C17.3397 17.3955 17.9879 17.263 18.5872 16.9982C19.1866 16.7334 19.7093 16.3779 20.1553 15.9319C20.6014 15.4859 20.9568 14.9632 21.2216 14.3638C21.4865 13.7644 21.6189 13.1302 21.6189 12.4612C21.6189 12.1545 21.5562 11.813 21.4307 11.4367C21.3053 11.0603 21.1589 10.7885 20.9916 10.6213L22.7061 9.6595V6.39785L19.1099 8.3632C18.7196 8.08443 18.3154 7.87535 17.8973 7.73596C17.4791 7.59658 17.0052 7.52688 16.4755 7.52688C15.7786 7.52688 15.1304 7.6593 14.5311 7.92413C13.9317 8.18897 13.409 8.5444 12.963 8.99044C12.5169 9.43648 12.1685 9.95918 11.9176 10.5585C11.6667 11.1579 11.5412 11.7921 11.5412 12.4612C11.5412 13.2417 11.7155 13.9596 12.0639 14.6147C12.4124 15.2698 12.8654 15.8204 13.4229 16.2664C13.0884 16.9355 12.9211 17.6464 12.9211 18.399C12.9211 18.7336 12.956 19.0611 13.0257 19.3817C13.0954 19.7023 13.1999 20.0159 13.3393 20.3226C12.6145 20.7407 12.036 21.2704 11.6039 21.9116C11.1718 22.5528 10.9558 23.2358 10.9558 23.9606C10.9558 24.6018 11.1091 25.2011 11.4158 25.7587C11.7224 26.3162 12.1476 26.8041 12.6912 27.2222C13.2348 27.6404 13.869 27.9749 14.5938 28.2258C15.3186 28.4767 16.0992 28.6022 16.9355 28.6022Z" fill="#B5DFD4"/>
</g>
</svg>
