<svg width="40" height="40" viewBox="0 0 40 40" fill="none" xmlns="http://www.w3.org/2000/svg">
<g id="&#240;&#159;&#166;&#134; icon &#34;circle github&#34;">
<path id="Vector" d="M19.9761 0C22.7479 0 25.3445 0.525687 27.7658 1.57706C30.1872 2.62843 32.3059 4.05416 34.1219 5.85424C35.9379 7.65432 37.3716 9.76503 38.4229 12.1864C39.4743 14.6077 40 17.2043 40 19.9761C40 22.7479 39.4743 25.3445 38.4229 27.7658C37.3716 30.1872 35.9379 32.3059 34.1219 34.1219C32.3059 35.9379 30.1872 37.3716 27.7658 38.4229C25.3445 39.4743 22.7479 40 19.9761 40C17.2043 40 14.6077 39.4743 12.1864 38.4229C9.76503 37.3716 7.65432 35.9379 5.85424 34.1219C4.05416 32.3059 2.62843 30.1872 1.57706 27.7658C0.525687 25.3445 0 22.7479 0 19.9761C0 17.2043 0.525687 14.6077 1.57706 12.1864C2.62843 9.76503 4.05416 7.65432 5.85424 5.85424C7.65432 4.05416 9.76503 2.62843 12.1864 1.57706C14.6077 0.525687 17.2043 0 19.9761 0ZM19.3548 32.6882C20.3106 32.6882 21.2027 32.5448 22.0311 32.2581C22.8594 31.9713 23.5842 31.589 24.2055 31.1111C24.8268 30.6332 25.3206 30.0757 25.687 29.4385C26.0534 28.8013 26.2366 28.1163 26.2366 27.3835C26.2366 26.6826 26.0534 26.0135 25.687 25.3763C25.3206 24.7391 24.8268 24.1816 24.2055 23.7037C23.5842 23.2258 22.8594 22.8435 22.0311 22.5568C21.2027 22.27 20.3106 22.1266 19.3548 22.1266C19.2593 22.1266 19.1637 22.1346 19.0681 22.1505C18.9725 22.1665 18.8929 22.1744 18.8292 22.1744C18.6699 21.7921 18.5902 21.4098 18.5902 21.0275C18.5902 20.8045 18.6061 20.5575 18.638 20.2867C18.6699 20.0159 18.7176 19.8805 18.7814 19.8805H18.9725C19.769 19.8805 20.5098 19.7292 21.1947 19.4265C21.8797 19.1239 22.4851 18.7176 23.0108 18.2079C23.5364 17.6981 23.9506 17.1008 24.2533 16.4158C24.556 15.7308 24.7073 15.006 24.7073 14.2413C24.7073 13.8909 24.6356 13.5006 24.4922 13.0705C24.3489 12.6404 24.1657 12.3297 23.9427 12.1386L25.9498 11.0394V7.31183L21.8399 9.55795C20.916 8.92075 19.9124 8.60215 18.8292 8.60215C18.0327 8.60215 17.2919 8.75348 16.6069 9.05615C15.9219 9.35882 15.3246 9.76503 14.8148 10.2748C14.3051 10.7845 13.9068 11.3819 13.6201 12.0669C13.3333 12.7519 13.19 13.4767 13.19 14.2413C13.19 15.1334 13.3811 15.9538 13.7634 16.7025C14.1458 17.4512 14.6555 18.0804 15.2927 18.5902C14.9423 19.3867 14.767 20.1991 14.767 21.0275C14.767 21.4098 14.8069 21.7842 14.8865 22.1505C14.9661 22.5169 15.0856 22.8753 15.2449 23.2258C14.4166 23.7037 13.7475 24.309 13.2378 25.0418C12.728 25.7746 12.4731 26.5552 12.4731 27.3835C12.4731 28.1163 12.6563 28.8013 13.0227 29.4385C13.3891 30.0757 13.8829 30.6332 14.5042 31.1111C15.1254 31.589 15.8503 31.9713 16.6786 32.2581C17.507 32.5448 18.399 32.6882 19.3548 32.6882ZM19.3548 25.3763C20.2151 25.3763 20.9399 25.5755 21.5293 25.9737C22.1187 26.372 22.4134 26.8419 22.4134 27.3835C22.4134 27.957 22.1187 28.4429 21.5293 28.8411C20.9399 29.2393 20.2151 29.4385 19.3548 29.4385C18.5265 29.4385 17.8096 29.2393 17.2043 28.8411C16.599 28.4429 16.2963 27.957 16.2963 27.3835C16.2963 26.8419 16.599 26.372 17.2043 25.9737C17.8096 25.5755 18.5265 25.3763 19.3548 25.3763ZM18.9725 16.8698C18.2397 16.8698 17.6105 16.6149 17.0848 16.1051C16.5591 15.5954 16.2963 14.9741 16.2963 14.2413C16.2963 13.5086 16.5591 12.8873 17.0848 12.3775C17.6105 11.8678 18.2397 11.6129 18.9725 11.6129C19.7053 11.6129 20.3345 11.8678 20.8602 12.3775C21.3859 12.8873 21.6487 13.5086 21.6487 14.2413C21.6487 14.9741 21.3859 15.5954 20.8602 16.1051C20.3345 16.6149 19.7053 16.8698 18.9725 16.8698Z" fill="#FFC700"/>
</g>
</svg>
