<svg width="40" height="40" viewBox="0 0 40 40" fill="none" xmlns="http://www.w3.org/2000/svg">
<g id="&#240;&#159;&#166;&#134; icon &#34;circle email&#34;">
<path id="Vector" d="M20 0C22.7619 0 25.3571 0.52381 27.7857 1.57143C30.2143 2.61905 32.3333 4.04762 34.1429 5.85714C35.9524 7.66667 37.381 9.78571 38.4286 12.2143C39.4762 14.6429 40 17.2381 40 20C40 22.7619 39.4762 25.3571 38.4286 27.7857C37.381 30.2143 35.9524 32.3333 34.1429 34.1429C32.3333 35.9524 30.2143 37.381 27.7857 38.4286C25.3571 39.4762 22.7619 40 20 40C17.2381 40 14.6429 39.4762 12.2143 38.4286C9.78571 37.381 7.66667 35.9524 5.85714 34.1429C4.04762 32.3333 2.61905 30.2143 1.57143 27.7857C0.52381 25.3571 0 22.7619 0 20C0 17.2381 0.52381 14.6429 1.57143 12.2143C2.61905 9.78571 4.04762 7.66667 5.85714 5.85714C7.66667 4.04762 9.78571 2.61905 12.2143 1.57143C14.6429 0.52381 17.2381 0 20 0ZM8.7619 25.1905L14.7619 20.9048L8.7619 16.619V25.1905ZM31.2381 27.0952L23.9048 21.8571L20 24.6667L16.0476 21.8571L8.7619 27.0952V30H31.2381V27.0952ZM31.2381 16.619L25.2381 20.9048L31.2381 25.1905V16.619ZM31.2381 10H8.7619V12.9048L20 20.9048L31.2381 12.9048V10Z" fill="#FFC700"/>
</g>
</svg>
